<?xml version="1.0" standalone="no"?>
<!DOCTYPE svg PUBLIC "-//W3C//DTD SVG 20010904//EN"
 "http://www.w3.org/TR/2001/REC-SVG-20010904/DTD/svg10.dtd">
<svg version="1.0" xmlns="http://www.w3.org/2000/svg"
 width="512.000000pt" height="512.000000pt" viewBox="0 0 512.000000 512.000000"
 preserveAspectRatio="xMidYMid meet">

<g transform="translate(0.000000,512.000000) scale(0.100000,-0.100000)"
fill="#000000" stroke="none">
<path d="M1011 3699 c-593 -74 -1040 -603 -1008 -1192 29 -538 413 -976 947
-1078 88 -16 308 -17 400 0 170 30 364 114 487 208 33 27 173 147 310 268 136
122 307 272 378 335 72 62 234 207 360 320 697 627 704 633 860 686 72 25 94
28 215 29 114 0 146 -4 210 -23 130 -41 206 -87 306 -187 78 -78 98 -104 137
-185 103 -213 103 -427 0 -640 -39 -81 -59 -107 -137 -185 -64 -64 -112 -101
-161 -127 -211 -109 -447 -116 -650 -19 -97 46 -139 78 -317 238 -75 68 -139
123 -143 123 -9 0 -315 -273 -315 -281 0 -18 390 -350 471 -401 321 -202 750
-227 1094 -64 725 343 890 1282 326 1847 -357 355 -900 437 -1351 203 -47 -24
-113 -65 -147 -91 -58 -46 -463 -403 -1302 -1152 -212 -189 -411 -360 -441
-379 -166 -108 -405 -140 -595 -82 -124 39 -202 86 -301 185 -78 78 -98 104
-137 185 -103 213 -103 427 0 640 39 81 59 107 137 185 140 139 279 202 471
212 127 7 230 -13 340 -66 96 -46 135 -75 317 -237 l139 -125 34 28 c74 61
284 248 284 254 1 10 -335 308 -405 360 -124 92 -292 165 -446 194 -105 20
-271 27 -367 14z"/>
</g>
</svg>
