<?xml version="1.0" standalone="no"?>
<!DOCTYPE svg PUBLIC "-//W3C//DTD SVG 20010904//EN"
 "http://www.w3.org/TR/2001/REC-SVG-20010904/DTD/svg10.dtd">
<svg version="1.0" xmlns="http://www.w3.org/2000/svg"
 width="512.000000pt" height="512.000000pt" viewBox="0 0 512.000000 512.000000"
 preserveAspectRatio="xMidYMid meet">

<g transform="translate(0.000000,512.000000) scale(0.100000,-0.100000)"
fill="#000000" stroke="none">
<path d="M1934 3984 c-27 -7 -97 -35 -155 -62 -162 -76 -199 -135 -199 -323 0
-95 -1 -99 -30 -133 -48 -54 -138 -81 -270 -81 -130 1 -217 29 -315 101 -36
27 -84 62 -105 78 -69 52 -182 47 -251 -11 -56 -47 -72 -95 -79 -233 -7 -146
-25 -197 -107 -295 -62 -74 -96 -134 -119 -205 -14 -46 -18 -108 -22 -383 l-4
-328 -114 -174 c-175 -270 -168 -255 -160 -330 22 -217 173 -395 391 -462 57
-17 145 -18 2010 -18 1827 0 1955 1 2032 18 312 67 557 294 649 602 22 73 27
111 28 205 1 109 -1 118 -31 182 -39 82 -99 142 -183 182 l-64 30 -256 7
c-296 8 -448 32 -653 100 -170 56 -314 130 -672 341 -390 230 -452 274 -601
423 -160 159 -228 256 -389 559 -32 60 -71 123 -87 141 -56 64 -155 92 -244
69z m132 -166 c7 -7 45 -74 85 -148 40 -74 90 -163 111 -198 21 -34 38 -66 38
-70 0 -4 -49 -26 -109 -50 l-108 -43 -61 36 c-72 43 -178 82 -248 90 l-50 7 4
116 c4 134 14 174 46 195 24 16 126 61 185 82 37 13 85 5 107 -17z m-1230
-423 c201 -162 446 -206 684 -123 102 36 274 22 372 -28 l38 -19 -203 -122
c-216 -131 -273 -159 -382 -191 -226 -66 -431 -56 -717 35 l-57 18 35 55 c50
80 66 139 73 278 5 106 9 126 26 138 33 24 59 16 131 -41z m1583 -151 c12 -15
21 -30 21 -33 0 -4 -58 -78 -130 -166 -108 -132 -130 -165 -130 -192 0 -66 73
-96 121 -50 13 12 75 85 137 161 l113 137 67 -62 c37 -34 68 -66 70 -71 2 -4
-25 -93 -59 -198 l-63 -189 20 -28 c23 -31 70 -41 103 -24 13 8 35 57 71 168
29 87 56 162 60 167 5 4 40 -11 79 -35 l71 -44 0 -55 c0 -30 -5 -113 -10 -184
-8 -106 -7 -133 5 -156 24 -46 88 -50 123 -8 6 8 16 78 22 158 6 79 12 146 15
148 2 3 42 -17 87 -45 l83 -49 10 -146 c8 -118 14 -150 28 -166 25 -27 48 -32
85 -16 40 16 47 43 38 150 l-6 83 124 -62 124 -62 7 -69 c8 -80 28 -106 78
-106 41 0 63 22 72 73 4 20 10 37 13 37 3 0 42 -11 86 -24 194 -58 406 -86
660 -86 88 0 178 -5 199 -11 66 -18 147 -105 147 -158 0 -42 -233 -164 -397
-208 -94 -25 -112 -26 -451 -32 l-354 -6 -19 -24 c-25 -30 -24 -76 1 -101 19
-19 33 -20 338 -20 360 0 441 9 612 66 58 19 138 53 178 75 41 21 76 39 78 39
17 0 -38 -136 -84 -209 -93 -149 -240 -260 -414 -313 l-73 -23 -1910 -3
c-1322 -2 -1932 1 -1980 8 -130 20 -240 101 -295 216 -55 113 -52 122 85 336
l120 187 338 1 c436 0 441 -1 633 -173 99 -89 182 -138 292 -176 l77 -26 881
-3 c876 -3 880 -3 899 18 25 28 23 76 -4 103 l-22 22 -867 5 c-788 5 -872 7
-917 23 -27 9 -56 21 -63 25 -9 6 9 66 78 248 49 131 90 250 90 263 0 61 -82
93 -122 48 -11 -12 -55 -115 -97 -227 -42 -113 -80 -213 -84 -223 -6 -16 -17
-10 -76 45 -140 127 -238 169 -414 176 -98 4 -120 7 -124 21 -20 62 -69 144
-109 181 -71 65 -141 93 -254 99 l-95 6 1 135 c0 104 5 146 18 181 l18 46 76
-24 c201 -63 305 -84 438 -90 294 -13 484 44 803 241 47 29 96 58 108 65 l22
11 -25 -67 c-104 -274 -124 -333 -124 -356 0 -30 41 -67 75 -67 13 0 32 8 43
18 13 10 63 130 130 307 l109 290 129 52 c71 29 132 52 136 53 4 0 16 -12 27
-26z m-1784 -950 c37 -19 105 -94 105 -115 0 -6 -61 -8 -152 -7 l-153 3 -3 74
-3 73 83 -3 c59 -3 94 -10 123 -25z"/>
<path d="M444 1798 c-22 -10 -44 -47 -44 -72 0 -7 9 -25 21 -40 26 -33 79 -36
109 -6 30 30 27 83 -6 109 -29 23 -48 25 -80 9z"/>
<path d="M745 1799 c-63 -35 -59 -113 6 -138 30 -11 83 8 93 34 25 67 -40 137
-99 104z"/>
<path d="M1040 1803 c-51 -19 -68 -85 -30 -123 30 -30 83 -27 109 6 12 15 21
33 21 40 0 26 -23 62 -47 73 -26 12 -30 12 -53 4z"/>
</g>
</svg>
