<?xml version="1.0" standalone="no"?>
<!DOCTYPE svg PUBLIC "-//W3C//DTD SVG 20010904//EN"
 "http://www.w3.org/TR/2001/REC-SVG-20010904/DTD/svg10.dtd">
<svg version="1.0" xmlns="http://www.w3.org/2000/svg"
 width="512.000000pt" height="512.000000pt" viewBox="0 0 512.000000 512.000000"
 preserveAspectRatio="xMidYMid meet">

<g transform="translate(0.000000,512.000000) scale(0.100000,-0.100000)"
fill="#000000" stroke="none">
<path d="M1361 4904 c-12 -15 -21 -30 -21 -34 0 -3 -99 -1036 -220 -2294 -121
-1258 -220 -2301 -220 -2317 0 -16 9 -38 20 -49 19 -19 33 -20 544 -20 489 0
525 1 546 18 20 16 44 146 284 1580 143 859 263 1562 266 1562 3 0 123 -703
266 -1562 241 -1434 264 -1564 284 -1580 21 -17 57 -18 546 -18 511 0 525 1
544 20 11 11 20 32 20 48 0 15 -99 1060 -220 2322 -191 1982 -223 2298 -239
2320 l-18 25 -1181 3 -1180 2 -21 -26z m2289 -143 c0 -15 3 -49 6 -75 l7 -46
-1103 0 -1103 0 7 46 c3 26 6 60 6 75 l0 29 1090 0 1090 0 0 -29z m-1876 -288
c-21 -91 -117 -198 -201 -227 -70 -24 -153 -32 -153 -15 0 25 22 244 26 257 2
9 45 12 169 12 l165 0 -6 -27z m716 -319 l0 -347 -290 -1731 c-160 -952 -290
-1734 -290 -1738 0 -5 -193 -8 -430 -8 -403 0 -430 1 -430 18 -1 9 79 853 177
1874 l178 1858 40 0 c65 0 172 27 228 57 112 60 210 188 239 312 l11 51 284 0
283 0 0 -346z m718 295 c29 -124 127 -252 239 -312 56 -30 163 -57 228 -57
l40 0 178 -1858 c98 -1021 178 -1865 177 -1874 0 -17 -27 -18 -430 -18 -236 0
-430 3 -430 7 0 4 -130 787 -290 1739 l-290 1731 0 347 0 346 283 0 284 0 11
-51z m479 -69 c18 -179 22 -164 -40 -157 -84 10 -143 36 -197 84 -50 45 -90
109 -104 166 l-7 27 168 -2 168 -3 12 -115z"/>
</g>
</svg>
