<?xml version="1.0" standalone="no"?>
<!DOCTYPE svg PUBLIC "-//W3C//DTD SVG 20010904//EN"
 "http://www.w3.org/TR/2001/REC-SVG-20010904/DTD/svg10.dtd">
<svg version="1.0" xmlns="http://www.w3.org/2000/svg"
 width="512.000000pt" height="512.000000pt" viewBox="0 0 512.000000 512.000000"
 preserveAspectRatio="xMidYMid meet">

<g transform="translate(0.000000,512.000000) scale(0.100000,-0.100000)"
fill="#000000" stroke="none">
<path d="M1831 5032 c-164 -101 -174 -114 -169 -204 l3 -60 -342 -137 c-188
-75 -352 -146 -364 -157 -25 -22 -399 -765 -399 -793 0 -10 9 -30 21 -45 27
-34 77 -36 106 -3 12 12 83 149 159 305 75 155 140 279 144 275 4 -4 16 -62
28 -128 21 -115 22 -147 22 -782 0 -377 -4 -663 -9 -663 -16 0 -641 361 -641
371 0 5 41 91 91 190 73 147 89 186 84 210 -12 53 -68 74 -114 43 -31 -22
-221 -416 -221 -459 0 -70 22 -86 428 -319 l382 -219 0 -667 c0 -656 0 -667
20 -685 28 -25 76 -23 103 4 l22 22 3 1422 2 1422 -35 190 c-19 105 -35 197
-35 207 0 12 75 46 295 134 162 65 297 116 299 113 3 -3 57 -191 122 -419 64
-228 121 -422 127 -432 19 -30 70 -51 108 -44 22 4 96 54 216 146 165 125 184
137 193 120 6 -12 10 -188 10 -478 0 -432 1 -460 18 -475 27 -24 85 -22 108 4
18 20 19 45 22 491 2 392 5 469 16 465 8 -3 96 -67 195 -141 194 -145 213
-154 270 -120 15 9 32 24 38 33 6 9 64 206 128 436 65 231 119 421 120 422 5
8 591 -238 593 -250 2 -8 -13 -100 -33 -206 l-35 -192 0 -1779 c0 -1751 0
-1779 -19 -1790 -11 -5 -100 -37 -198 -69 -315 -105 -544 -152 -908 -185 l-60
-6 -52 84 -53 83 -2 1241 -3 1241 -22 22 c-27 27 -75 29 -103 4 -20 -18 -20
-28 -20 -1254 l0 -1237 -48 -76 c-72 -113 -66 -109 -131 -102 -379 37 -716
111 -1011 222 l-105 39 -5 225 c-5 204 -7 228 -24 247 -25 27 -86 29 -109 3
-15 -16 -17 -50 -17 -269 0 -329 -12 -311 268 -407 341 -117 678 -186 1028
-212 60 -4 98 -3 112 5 11 6 40 42 64 81 24 38 45 70 48 70 3 0 24 -32 48 -70
24 -39 53 -75 64 -81 24 -13 153 -6 338 17 290 36 562 103 869 213 132 47 155
60 181 104 19 31 20 59 20 1073 l0 1041 382 219 c228 131 389 230 401 245 11
15 21 46 24 70 4 41 -19 89 -354 759 -304 606 -363 718 -390 736 -18 12 -181
81 -363 154 l-329 132 5 57 c10 90 -3 105 -168 205 l-143 86 -586 0 -585 0
-143 -88z m955 -467 c-121 -222 -223 -404 -226 -404 -3 0 -67 113 -143 252
-75 139 -175 321 -221 405 l-84 152 448 0 448 0 -222 -405z m-608 -25 c118
-214 212 -394 210 -399 -4 -11 -309 -244 -312 -239 -1 2 -60 208 -130 458 -70
250 -129 462 -131 470 -3 10 17 29 63 57 37 23 72 42 77 42 6 0 106 -175 223
-389z m1061 348 c48 -29 69 -48 66 -58 -2 -8 -61 -220 -131 -470 -70 -250
-129 -456 -130 -458 -5 -7 -314 231 -314 241 0 15 423 786 432 787 4 0 39 -19
77 -42z m1491 -1879 c0 -8 -627 -369 -641 -369 -5 0 -9 286 -9 663 0 623 1
670 20 777 12 63 23 122 26 130 5 13 604 -1179 604 -1201z"/>
</g>
</svg>
